<svg viewBox="0 0 605 478" fill="none" xmlns="http://www.w3.org/2000/svg">
    <path
        d="M135 73.5C135 77.25 133 80 131.25 80C129.5 80 127 76.25 127 73.5C127 70.75 127 64 130.5 64C134 64 135 71.2435 135 73.5Z"
        fill="#633403" />
    <path
        d="M168.659 73.5C168.659 77.25 166.66 80 164.909 80C163.159 80 160.659 76.25 160.659 73.5C160.659 70.75 160.66 64 164.159 64C167.659 64 168.659 71.2435 168.659 73.5Z"
        fill="#633403" />
    <path
        d="M150.674 143.002C123.434 145.349 93.6772 131.085 87.6772 100.585C83.4642 63.408 98.2352 41.123 118.5 31.542M150.674 143.002C177.206 140.716 201.693 122.085 203.173 84.585C204.206 58.41 189.463 40.123 170.159 31.542M150.674 143.002C150.674 143.002 150.674 150.671 150.674 155.585M118.5 31.542C131.391 27.528 160 23.514 155.5 3.50002M118.5 31.542C127.329 27.368 137.2 25.605 147 26.073M170.159 31.542C162.887 28.309 154.967 26.454 147 26.073M170.159 31.542C182.273 33.028 188.958 26.073 203.173 1.20001M150.674 155.585C130.942 155.585 85.8112 295.208 118.5 329.638M150.674 155.585C183.237 155.585 118.825 257 164.825 325.5M150.674 155.585C318.5 171 343.5 116.5 355 91.5M150.674 155.585C189.616 210.223 286.6 302.4 363 234M118.5 329.638C118.5 329.638 87.6772 325.5 60.0002 339.5C32.3232 353.5 47.5002 476.5 47.5002 476.5M118.5 329.638C122.399 328.941 150.674 339.5 164.825 325.5M164.825 325.5C164.825 325.5 214.036 316 261.5 316C293 316 271.5 468 271.5 468M355 91.5C366.5 66.5 376 91.5 376 91.5C376 91.5 376 98.5 366.5 99.5C357 100.5 355 91.5 355 91.5ZM363 234C371 226.838 360 220 352.5 225C345 230 355.107 238.92 363 234ZM47.5002 476.5H2.0032C0.670195 473.667 7.00319 461.5 15.0032 461.5C27.5022 461.5 42.0002 470.333 47.5002 476.5ZM271.5 468C322.413 466.915 299.5 468 319 466.915C321.913 463.415 318.5 453.415 308.185 454.219C295.724 455.19 269.5 459 271.5 468ZM147 26.073C158.833 23.549 175.072 23.5248 186.413 3.85656M108.5 91.5C114.5 102.5 169.5 108.6 181.5 97C166 139.713 111.5 133 108.5 91.5ZM136.5 69.5C136.5 77 132.5 82.5 129 82.5C125.5 82.5 120.5 75 120.5 69.5C120.5 64 120.5 50.5 127.5 50.5C134.5 50.5 136.5 64.987 136.5 69.5ZM170.159 69.5C170.159 77 166.16 82.5 162.659 82.5C159.159 82.5 154.159 75 154.159 69.5C154.159 64 154.16 50.5 161.159 50.5C168.159 50.5 170.159 64.987 170.159 69.5Z"
        stroke="#633403" stroke-width="2" />
    <path
        d="M588 89H372C362.611 89 355 96.6112 355 106V216C355 225.389 362.611 233 372 233H588C597.389 233 605 225.389 605 216V106C605 96.6112 597.389 89 588 89Z"
        fill="#633403" />
    <path d="M120 44.622C127.5 38.622 129.5 41.122 135 44.622" stroke="#633403" stroke-width="2"
        stroke-linecap="round" />
    <path d="M154 44.622C161.5 38.622 163.5 41.122 169 44.622" stroke="#633403" stroke-width="2"
        stroke-linecap="round" />
    <path d="M101 92.5C108.5 92.5 109 92 111.5 84.5" stroke="#633403" stroke-width="2" />
    <path
        d="M407.349 103.76H416.053C420.554 103.76 424.245 104.667 427.125 106.48C430.005 108.272 432.127 110.757 433.493 113.936C434.879 117.115 435.573 120.752 435.573 124.848C435.573 128.965 434.89 132.613 433.525 135.792C432.159 138.971 430.037 141.467 427.157 143.28C424.277 145.093 420.575 146 416.053 146H407.349V103.76ZM410.901 107.152V142.608H415.765C419.519 142.608 422.57 141.851 424.917 140.336C427.285 138.821 429.023 136.741 430.133 134.096C431.263 131.429 431.839 128.368 431.861 124.912C431.882 121.456 431.338 118.395 430.229 115.728C429.119 113.061 427.37 110.971 424.981 109.456C422.613 107.92 419.541 107.152 415.765 107.152H410.901ZM466.271 146V140.496C466.122 141.072 465.621 141.861 464.767 142.864C463.935 143.867 462.773 144.773 461.279 145.584C459.807 146.373 458.058 146.768 456.031 146.768C453.663 146.768 451.477 146.224 449.471 145.136C447.487 144.027 445.887 142.437 444.671 140.368C443.477 138.277 442.879 135.781 442.879 132.88C442.879 129.979 443.477 127.493 444.671 125.424C445.887 123.333 447.487 121.733 449.471 120.624C451.477 119.515 453.663 118.96 456.031 118.96C458.058 118.96 459.807 119.344 461.279 120.112C462.751 120.859 463.914 121.723 464.767 122.704C465.642 123.685 466.133 124.507 466.239 125.168V119.728H469.823V146H466.271ZM446.495 132.88C446.495 135.099 446.975 137.008 447.935 138.608C448.895 140.208 450.133 141.435 451.647 142.288C453.183 143.141 454.794 143.568 456.479 143.568C458.335 143.568 459.989 143.131 461.439 142.256C462.89 141.381 464.031 140.144 464.863 138.544C465.717 136.944 466.143 135.056 466.143 132.88C466.143 130.704 465.717 128.816 464.863 127.216C464.031 125.616 462.89 124.379 461.439 123.504C459.989 122.608 458.335 122.16 456.479 122.16C454.794 122.16 453.183 122.597 451.647 123.472C450.133 124.325 448.895 125.552 447.935 127.152C446.975 128.752 446.495 130.661 446.495 132.88ZM495.75 124.272L488.838 146H484.55L478.118 119.728H482.022L487.014 141.936L493.862 120.24H497.638L504.454 141.936L509.51 119.728H513.414L507.014 146H502.726L495.75 124.272ZM522.907 146V119.728H526.523V146H522.907ZM524.763 109.072C523.995 109.072 523.334 108.805 522.779 108.272C522.246 107.717 521.979 107.056 521.979 106.288C521.979 105.499 522.257 104.837 522.811 104.304C523.366 103.749 524.017 103.472 524.763 103.472C525.275 103.472 525.745 103.6 526.171 103.856C526.619 104.112 526.971 104.453 527.227 104.88C527.505 105.285 527.643 105.755 527.643 106.288C527.643 107.056 527.355 107.717 526.779 108.272C526.225 108.805 525.553 109.072 524.763 109.072ZM535.601 119.728H541.073V108.944H544.689V119.728H551.857V123.024H544.689V138.608C544.689 140.357 545.009 141.605 545.649 142.352C546.289 143.099 547.089 143.472 548.049 143.472C548.967 143.472 549.66 143.312 550.129 142.992C550.599 142.672 550.876 142.459 550.961 142.352L552.657 145.136C552.529 145.243 552.241 145.435 551.793 145.712C551.345 145.968 550.759 146.203 550.033 146.416C549.308 146.651 548.433 146.768 547.409 146.768C545.639 146.768 544.135 146.203 542.897 145.072C541.681 143.92 541.073 142.085 541.073 139.568V123.024H535.601V119.728ZM395.029 184.88L412.853 206H408.501L391.509 186V206H387.893V163.76H391.509V184.048L407.477 163.76H411.701L395.029 184.88ZM419.338 193.296C419.36 195.131 419.722 196.848 420.426 198.448C421.152 200.048 422.24 201.339 423.69 202.32C425.141 203.301 426.965 203.792 429.162 203.792C430.954 203.792 432.448 203.504 433.642 202.928C434.858 202.331 435.818 201.648 436.522 200.88C437.248 200.091 437.76 199.387 438.058 198.768L440.33 201.008C439.541 202.224 438.624 203.269 437.578 204.144C436.554 204.997 435.338 205.648 433.93 206.096C432.544 206.544 430.89 206.768 428.97 206.768C426.176 206.768 423.786 206.149 421.802 204.912C419.84 203.653 418.336 201.947 417.29 199.792C416.266 197.637 415.754 195.216 415.754 192.528C415.754 189.968 416.266 187.664 417.29 185.616C418.314 183.568 419.786 181.947 421.706 180.752C423.648 179.557 425.984 178.96 428.714 178.96C431.189 178.96 433.333 179.504 435.146 180.592C436.981 181.68 438.4 183.195 439.402 185.136C440.426 187.056 440.938 189.296 440.938 191.856C440.938 192.048 440.928 192.293 440.906 192.592C440.906 192.891 440.896 193.125 440.874 193.296H419.338ZM437.29 190.256C437.269 189.104 436.981 187.888 436.426 186.608C435.893 185.307 435.008 184.208 433.77 183.312C432.554 182.395 430.88 181.936 428.746 181.936C426.528 181.936 424.757 182.384 423.434 183.28C422.133 184.155 421.184 185.232 420.586 186.512C419.989 187.792 419.626 189.04 419.498 190.256H437.29ZM449.405 206V161.968H453.117V185.168C453.224 184.464 453.725 183.632 454.621 182.672C455.517 181.691 456.744 180.827 458.301 180.08C459.859 179.333 461.661 178.96 463.709 178.96C466.099 178.96 468.243 179.515 470.141 180.624C472.061 181.733 473.587 183.333 474.717 185.424C475.848 187.493 476.413 189.979 476.413 192.88C476.413 195.781 475.848 198.277 474.717 200.368C473.587 202.437 472.061 204.027 470.141 205.136C468.243 206.224 466.099 206.768 463.709 206.768C461.704 206.768 459.923 206.384 458.365 205.616C456.808 204.848 455.56 203.973 454.621 202.992C453.683 202.011 453.149 201.179 453.021 200.496V206H449.405ZM472.733 192.88C472.733 190.661 472.285 188.752 471.389 187.152C470.515 185.552 469.352 184.325 467.901 183.472C466.472 182.597 464.915 182.16 463.229 182.16C461.395 182.16 459.709 182.608 458.173 183.504C456.637 184.379 455.411 185.616 454.493 187.216C453.576 188.816 453.117 190.704 453.117 192.88C453.117 195.056 453.576 196.944 454.493 198.544C455.411 200.144 456.637 201.381 458.173 202.256C459.709 203.131 461.395 203.568 463.229 203.568C464.915 203.568 466.472 203.141 467.901 202.288C469.352 201.435 470.515 200.208 471.389 198.608C472.285 197.008 472.733 195.099 472.733 192.88ZM485.553 193.296C485.575 195.131 485.937 196.848 486.641 198.448C487.367 200.048 488.455 201.339 489.905 202.32C491.356 203.301 493.18 203.792 495.377 203.792C497.169 203.792 498.663 203.504 499.857 202.928C501.073 202.331 502.033 201.648 502.737 200.88C503.463 200.091 503.975 199.387 504.273 198.768L506.545 201.008C505.756 202.224 504.839 203.269 503.793 204.144C502.769 204.997 501.553 205.648 500.145 206.096C498.759 206.544 497.105 206.768 495.185 206.768C492.391 206.768 490.001 206.149 488.017 204.912C486.055 203.653 484.551 201.947 483.505 199.792C482.481 197.637 481.969 195.216 481.969 192.528C481.969 189.968 482.481 187.664 483.505 185.616C484.529 183.568 486.001 181.947 487.921 180.752C489.863 179.557 492.199 178.96 494.929 178.96C497.404 178.96 499.548 179.504 501.361 180.592C503.196 181.68 504.615 183.195 505.617 185.136C506.641 187.056 507.153 189.296 507.153 191.856C507.153 192.048 507.143 192.293 507.121 192.592C507.121 192.891 507.111 193.125 507.089 193.296H485.553ZM503.505 190.256C503.484 189.104 503.196 187.888 502.641 186.608C502.108 185.307 501.223 184.208 499.985 183.312C498.769 182.395 497.095 181.936 494.961 181.936C492.743 181.936 490.972 182.384 489.649 183.28C488.348 184.155 487.399 185.232 486.801 186.512C486.204 187.792 485.841 189.04 485.713 190.256H503.505ZM515.62 206V161.968H519.332V185.168C519.439 184.464 519.94 183.632 520.836 182.672C521.732 181.691 522.959 180.827 524.516 180.08C526.074 179.333 527.876 178.96 529.924 178.96C532.314 178.96 534.458 179.515 536.356 180.624C538.276 181.733 539.802 183.333 540.932 185.424C542.063 187.493 542.628 189.979 542.628 192.88C542.628 195.781 542.063 198.277 540.932 200.368C539.802 202.437 538.276 204.027 536.356 205.136C534.458 206.224 532.314 206.768 529.924 206.768C527.919 206.768 526.138 206.384 524.58 205.616C523.023 204.848 521.775 203.973 520.836 202.992C519.898 202.011 519.364 201.179 519.236 200.496V206H515.62ZM538.948 192.88C538.948 190.661 538.5 188.752 537.604 187.152C536.73 185.552 535.567 184.325 534.116 183.472C532.687 182.597 531.13 182.16 529.444 182.16C527.61 182.16 525.924 182.608 524.388 183.504C522.852 184.379 521.626 185.616 520.708 187.216C519.791 188.816 519.332 190.704 519.332 192.88C519.332 195.056 519.791 196.944 520.708 198.544C521.626 200.144 522.852 201.381 524.388 202.256C525.924 203.131 527.61 203.568 529.444 203.568C531.13 203.568 532.687 203.141 534.116 202.288C535.567 201.435 536.73 200.208 537.604 198.608C538.5 197.008 538.948 195.099 538.948 192.88ZM551.768 193.296C551.79 195.131 552.152 196.848 552.856 198.448C553.582 200.048 554.67 201.339 556.12 202.32C557.571 203.301 559.395 203.792 561.592 203.792C563.384 203.792 564.878 203.504 566.072 202.928C567.288 202.331 568.248 201.648 568.952 200.88C569.678 200.091 570.19 199.387 570.488 198.768L572.76 201.008C571.971 202.224 571.054 203.269 570.008 204.144C568.984 204.997 567.768 205.648 566.36 206.096C564.974 206.544 563.32 206.768 561.4 206.768C558.606 206.768 556.216 206.149 554.232 204.912C552.27 203.653 550.766 201.947 549.72 199.792C548.696 197.637 548.184 195.216 548.184 192.528C548.184 189.968 548.696 187.664 549.72 185.616C550.744 183.568 552.216 181.947 554.136 180.752C556.078 179.557 558.414 178.96 561.144 178.96C563.619 178.96 565.763 179.504 567.576 180.592C569.411 181.68 570.83 183.195 571.832 185.136C572.856 187.056 573.368 189.296 573.368 191.856C573.368 192.048 573.358 192.293 573.336 192.592C573.336 192.891 573.326 193.125 573.304 193.296H551.768ZM569.72 190.256C569.699 189.104 569.411 187.888 568.856 186.608C568.323 185.307 567.438 184.208 566.2 183.312C564.984 182.395 563.31 181.936 561.176 181.936C558.958 181.936 557.187 182.384 555.864 183.28C554.563 184.155 553.614 185.232 553.016 186.512C552.419 187.792 552.056 189.04 551.928 190.256H569.72Z"
        fill="white" />
</svg>